<?xml version="1.0" encoding="UTF-8"?><svg id="b" xmlns="http://www.w3.org/2000/svg" viewBox="0 0 1417.32 1417.32"><defs><style>.f{fill:#fff;}</style></defs><path class="f" d="M311.63,839.4l-138.22,34.46v-71.29s54.64,23.59,138.22,36.82Z"/><polygon class="f" points="173.41 921.88 226.76 963.07 173.41 980.69 173.41 921.88"/><polygon class="f" points="232.23 967.3 299.51 1019.25 173.41 1053.93 173.41 986.73 174.32 986.43 232.23 967.3"/><polyline class="f" points="309.21 1026.29 309.36 1101.51 173.41 1101.51 173.41 1059.91 174.18 1059.68 305.2 1023.64 309.36 1026.32"/><polygon class="f" points="309.36 941.82 309.32 1019.58 238.81 965.13 309.36 941.82"/><polygon class="f" points="318.67 842.42 173.41 878.28 173.41 914.72 233.33 960.9 309.36 935.79 309.36 935.79 309.36 885.88 335.12 885.87 335.12 926.51 402.06 904.34 345.88 846.21 318.67 842.42"/><path class="f" d="M563.68,850.81l-155.57,51.52-55.72-57.67c58.98,5.93,125.07,6.11,197.82-9.77l13.47,15.92Z"/><path class="f" d="M653.18,821.16v-18.58c-32.48,13.75-64.87,23.82-96.63,30.93l13.01,15.36,83.62-27.71Z"/><path class="f" d="M335.12,1010.44l130.51-40.33-59.15-61.19-71.36,23.63v77.9ZM544.46,1051.67l-29.91,9.88v40.1h78.07l-48.16-49.99ZM514.49,1020.66l.05,34.86,25.5-8.42-25.55-26.43ZM653.18,1101.66v-85.91s-102.67,33.93-102.67,33.93l50.1,51.98h52.57ZM653.18,915.28v-88.06l-79.63,26.36,57.88,68.36,21.75-6.67ZM514.4,964.1l.08,48.29,31.61,32.71,106.2-35.09.9-.29v-53.25l-23.68-27.91-115.1,35.55ZM635.46,926.71l17.72,20.93v-26.39l-17.72,5.46ZM490.15,885.68h24.23v72.35s111.08-34.24,111.08-34.24l-57.79-68.26-155.15,51.38,59.24,61.29,18.39-5.63v-76.9ZM490.16,968.52l-13.92,4.3,13.92,12.95v-17.26ZM335.12,1039.95l66.08,53.03,88.96-29.4v-68.09l-20.06-20.76-134.97,41.82v23.4ZM514.49,1020.66l.05,34.86,25.5-8.42-25.55-26.43ZM411.01,1101.66h79.15v-32.04l-83.74,27.67,4.59,4.37ZM335.12,1039.95v61.71s66.55,0,66.55,0l-66.55-53.91v53.23"/><path class="f" d="M511.98,670.16l-73.9,24.24,80.51,95.59,68.51-16.4-75.12-103.43ZM615.27,801.25c40.8-15.45,60.16-30.65,66.84-44.51l-85.33,20.43,18.49,24.08ZM603.15,640.26l-85.45,28.03,75.43,103.86,90.34-20.67c10.68-30.82-39.61-52.52-49.93-57.01-.84-.36-1.77.27-1.73,1.19l1.9,41.09-10.63-.84-3.74-34.36c-.97-11.87-3.41-23.48-6.78-33.45l-9.41-27.84ZM544.19,820.25l64.7-16.67-18.14-24.97-68.02,16.28,21.46,25.35ZM490.16,827.71c17.47-1.62,31.05-3.49,47.41-6.28l-21.07-25.03-44.4,10.62,18.07,20.68ZM407.51,822.48l-41.42,8.08c14.24.65,36.32.93,50.72.84l-9.3-8.92ZM425.15,831.32c20.9-.22,37.64-1.18,57.99-2.96l-17.35-19.83-51.64,12.36,11,10.42ZM432.2,696.33l-44.29,14.52,79.91,91.3,44.53-10.66-80.15-95.16ZM431.48,559.34l-86.45,24.6,24.88,29.53,83.73-23.62-22.16-30.51ZM431.48,559.34l-86.45,24.6,24.88,29.53,83.73-23.62-22.16-30.51ZM338.99,585.66h0l-48.55,13.82,25.56,29.21h0l47.85-13.5-24.86-29.53ZM367.91,619.99l-47.73,13.47,63.63,72.69,44.41-14.56-60.31-71.6ZM316.44,558.83c-15.77,8.62-26.84,16.57-38.57,26.31l8.37,9.57,48.68-13.85-18.49-22.02ZM338.99,585.66h0l-48.55,13.82,25.56,29.21h0l47.85-13.5-24.86-29.53ZM431.48,559.34l-86.45,24.6,24.88,29.53,83.73-23.62-22.16-30.51ZM397.98,512.11,397.98,512.11c-29.66,1.54-49.98,7.44-49.98,7.44l-.09,23.94c-9.39,3.96-18.16,8.16-26.37,12.54l19.44,23.09,86.91-24.73-29.92-42.28M397.98,512.11,514.32,535.77l-76.96,21.9,22.16,30.52,91.03-25.69c-46.33-43.81-104.65-51.91-146.8-50.62l30.02,40.85,73.09-20.8M554.16,567.44l-91.05,25.69h0s51.05,70.29,51.05,70.29l85.46-28.03c-14.67-39.21-45.46-67.95-45.46-67.95ZM235.81,651.97l74.06-21.57-25.55-29.19-32.3,9.19c-11.94,13.13-17.55,22.54-24.54,35.49l8.33,6.08ZM314.06,635.19l-73.7,20.79,76.88,72.01,60.63-19.88-63.82-72.92ZM367.91,619.99l-47.73,13.47,63.63,72.69,44.41-14.56-60.31-71.6ZM457.23,594.79l-83.27,23.5,60.13,71.39,74.34-24.38-51.21-70.5ZM381.99,712.79l-60.04,19.69,87.28,83.69,52.29-12.52-79.53-90.86ZM402.59,817.77l-86.83-83.25-53.72,17.62,76.7,76.81,63.85-11.17ZM325.94,826.47l-69.97-72.34-85.05,27.89s99.4,42.13,155.02,44.45ZM220.24,661.72c-19.81,43.32-15.05,74.62-15.05,74.62l-13.77-.32,2.45-40.79c-23.5,7.7-36.13,19.73-42.91,30.06-8.09,12.34-7.25,28.49,1.85,40.11,4.03,5.14,6.83,7.67,12.91,12.22l85.76-28.07-31.43-31.98,4.08-4.02,33.43,34.01,53.52-17.55-75.73-72.61-15.1,4.32ZM226.09,648.52c-1.12,2.16-2.51,5.46-3.51,7.59l8.71-2.61-5.19-4.98ZM259.34,602.35l20.8-5.91-6.62-7.57-14.18,13.48ZM431.48,559.34l-86.45,24.6,24.88,29.53,83.73-23.62-22.16-30.51Z"/><path class="f" d="M676.24,973.66v-109.23h27.99c24.04,0,36.36,10.04,36.36,32.56s-12.63,33.31-36.36,33.31h-9.89v43.36h-18.1ZM705,914.33c8.82,0,17.04-3.96,17.04-17.34,0-11.72-6.09-16.13-16.74-16.13h-10.96v33.47h10.65Z"/><rect class="f" x="750.35" y="864.43" width="16.13" height="109.23"/><path class="f" d="M816.39,973.66l-.92-8.37c-6.24,6.39-13.23,9.74-21.45,9.74-11.1,0-17.8-7.61-17.8-20.84,0-8.98,3.19-15.82,10.04-20.84,6.09-4.72,16.13-8.06,28.45-11.72.91-10.35-1.37-15.36-9.43-15.36-6.69,0-10.49,3.95-12.78,10.95l-13.08-3.2c3.5-12.78,11.26-20.99,26.77-20.99,17.19,0,24.34,8.21,24.34,24.95v40.77l1.21,14.91h-15.36ZM814.26,933.04c-8.67,2.44-13.54,4.41-17.04,7.3-3.19,2.59-4.41,6.69-4.41,11.41,0,5.94,2.59,9.74,7.76,9.74s10.19-2.89,13.69-7.6v-20.84Z"/><path class="f" d="M881.64,973.66v-53.09c0-8.67-2.59-12.17-8.22-12.17-4.26,0-8.36,2.28-13.23,7.91v57.35h-16.13v-79.11h15.67v9.43c6.54-7.3,12.63-10.95,20.69-10.95,6.69,0,11.56,2.58,14,7.15,2.59,4.11,3.19,9.89,3.19,18.56v54.92h-15.97Z"/><path class="f" d="M936.43,975.03c-19.02,0-28.3-12.63-28.3-41.38,0-25.56,9.89-40.62,28.6-40.62,20.54,0,27.69,16.28,27.69,36.51,0,2.28,0,4.87-.15,7.76h-40.62c.61,16.58,4.11,24.34,13.54,24.34,7.3,0,11.26-5.02,13.54-13.23l13.54,2.74c-4.26,16.73-13.54,23.88-27.84,23.88M923.8,925.59h25.1c0-11.71-3.65-19.62-12.17-19.62-7.91,0-11.86,7-12.93,19.62"/><path class="f" d="M1010.49,973.2c-3.95.76-7.91,1.22-12.48,1.22-13.08,0-17.95-4.87-17.95-19.93v-46.4h-10.49v-13.54h10.49v-25.71h15.97v25.71h14.45v13.54h-14.45v43.66c0,5.63,2.13,7.91,6.85,7.91,2.44,0,5.02-.3,7.61-1.06v14.6Z"/><path class="f" d="M1057.45,973.66l-.92-8.37c-6.24,6.39-13.23,9.74-21.45,9.74-11.1,0-17.8-7.61-17.8-20.84,0-8.98,3.19-15.82,10.04-20.84,6.09-4.72,16.13-8.06,28.45-11.72.91-10.35-1.37-15.36-9.43-15.36-6.69,0-10.49,3.95-12.78,10.95l-13.08-3.2c3.5-12.78,11.26-20.99,26.77-20.99,17.19,0,24.34,8.21,24.34,24.95v40.77l1.21,14.91h-15.36ZM1055.32,933.04c-8.67,2.44-13.54,4.41-17.04,7.3-3.19,2.59-4.41,6.69-4.41,11.41,0,5.94,2.59,9.74,7.76,9.74s10.19-2.89,13.69-7.6v-20.84Z"/><path class="f" d="M1085.12,973.66v-79.11h15.67v13.08c5.17-9.43,10.34-14.6,18.71-14.6.76,0,1.52.15,2.58.3v16.58c-1.21-.15-2.43-.31-3.2-.31-7.76,0-13.39,4.72-17.64,13.54v50.51h-16.13Z"/><path class="f" d="M1129.83,863.67h16.73v17.95h-16.73v-17.95ZM1130.13,894.55h16.13v79.11h-16.13v-79.11Z"/><path class="f" d="M1197.62,973.66v-9.43c-6.69,7.3-12.78,10.8-20.84,10.8-6.69,0-11.25-2.43-13.84-7-2.58-4.11-3.35-9.89-3.35-18.56v-54.92h16.43v53.09c0,8.67,2.13,12.17,8.06,12.17,4.11,0,8.21-2.28,12.93-7.91v-57.35h16.28v79.11h-15.67Z"/><path class="f" d="M1298.6,973.66v-53.7c0-8.82-3.2-11.56-7.45-11.56s-8.21,2.58-12.17,7.45v57.81h-16.13v-53.09c0-8.36-1.83-12.17-7.15-12.17-4.26,0-8.67,3.2-12.47,8.06v57.2h-16.13v-79.11h15.67v9.28c5.94-6.84,12.48-10.8,19.93-10.8,7.91,0,12.47,3.96,14.6,10.8,6.39-7.15,12.48-10.8,20.38-10.8,12.63,0,16.89,9.58,16.89,24.34v56.29h-15.98Z"/><polygon class="f" points="676.24 1100.9 676.24 991.67 732.99 991.67 732.99 1008.1 694.34 1008.1 694.34 1036.55 723.1 1036.55 723.1 1052.37 694.34 1052.37 694.34 1100.9 676.24 1100.9"/><path class="f" d="M736.72,1100.9v-79.11h15.67v13.08c5.17-9.43,10.34-14.6,18.71-14.6.76,0,1.52.15,2.58.3v16.58c-1.21-.15-2.43-.31-3.2-.31-7.76,0-13.39,4.72-17.64,13.54v50.51h-16.13Z"/><path class="f" d="M781.42,990.91h16.73v17.95h-16.73v-17.95ZM781.72,1021.79h16.13v79.11h-16.13v-79.11Z"/><path class="f" d="M847.1,1100.44c-3.95.76-7.91,1.22-12.48,1.22-13.08,0-17.95-4.87-17.95-19.93v-46.4h-10.49v-13.54h10.49v-25.71h15.97v25.71h14.45v13.54h-14.45v43.66c0,5.63,2.13,7.91,6.85,7.91,2.44,0,5.02-.3,7.61-1.06v14.6Z"/><polygon class="f" points="853.37 1100.9 853.37 1088.73 884.4 1035.33 856.26 1035.33 856.26 1021.79 903.57 1021.79 903.57 1034.11 872.54 1087.36 904.48 1087.36 904.48 1100.9 853.37 1100.9"/><rect class="f" x="913.68" y="991.67" width="16.13" height="109.23"/><path class="f" d="M979.74,1100.9l-.92-8.37c-6.24,6.39-13.23,9.74-21.45,9.74-11.1,0-17.8-7.61-17.8-20.84,0-8.98,3.19-15.82,10.04-20.84,6.09-4.72,16.13-8.06,28.45-11.72.91-10.35-1.37-15.37-9.43-15.37-6.69,0-10.49,3.95-12.78,10.95l-13.08-3.2c3.5-12.78,11.26-20.99,26.77-20.99,17.19,0,24.34,8.21,24.34,24.95v40.77l1.21,14.91h-15.36ZM977.61,1060.28c-8.67,2.44-13.54,4.41-17.04,7.3-3.19,2.59-4.41,6.69-4.41,11.41,0,5.94,2.59,9.74,7.76,9.74s10.19-2.89,13.69-7.6v-20.84Z"/><path class="f" d="M1007.41,1100.9v-79.11h15.67v13.08c5.17-9.43,10.35-14.6,18.71-14.6.76,0,1.52.15,2.58.3v16.58c-1.22-.15-2.43-.31-3.2-.31-7.75,0-13.39,4.72-17.64,13.54v50.51h-16.13Z"/></svg>