<?xml version="1.0" encoding="UTF-8"?><svg id="e" xmlns="http://www.w3.org/2000/svg" viewBox="0 0 1417.32 1417.32"><path d="M568.9,767.59l-199.75,49.81v-103.02s78.97,34.09,199.75,53.21Z"/><polygon points="369.15 886.78 446.24 946.32 369.15 971.78 369.15 886.78"/><polygon points="454.15 952.43 551.39 1027.51 369.15 1077.63 369.15 980.51 370.45 980.08 454.15 952.43"/><polyline points="565.4 1037.69 565.62 1146.38 369.15 1146.38 369.15 1086.27 370.25 1085.93 559.61 1033.86 565.62 1037.73"/><polygon points="565.62 915.61 565.56 1027.99 463.66 949.29 565.62 915.61"/><polygon points="579.08 771.96 369.15 823.78 369.15 876.44 455.75 943.19 565.62 906.89 565.62 906.89 565.62 834.75 602.85 834.75 602.85 893.47 699.59 861.44 618.4 777.44 579.08 771.96"/><path d="M933.16,784.09l-224.83,74.46-80.53-83.34c85.24,8.57,180.75,8.83,285.89-14.13l19.47,23Z"/><path d="M1062.5,741.22v-26.85c-46.94,19.87-93.76,34.43-139.65,44.7l18.8,22.2,120.85-40.05Z"/><path d="M602.85,1014.77l188.61-58.29-85.48-88.43-103.13,34.15v112.57ZM905.38,1074.36l-43.22,14.28v57.96h112.83l-69.61-72.24ZM862.07,1029.55l.07,50.38,36.85-12.18-36.92-38.2ZM1062.5,1146.6v-124.16s-148.38,49.03-148.38,49.03l72.4,75.12h75.98ZM1062.5,877.26v-127.26l-115.08,38.1,83.64,98.79,31.43-9.64ZM861.94,947.81l.11,69.79,45.68,47.27,153.47-50.72,1.3-.42v-76.96l-34.22-40.33-166.34,51.38ZM1036.9,893.78l25.6,30.25v-38.14l-25.6,7.89ZM826.9,834.48h35.02v104.56s160.54-49.48,160.54-49.48l-83.52-98.65-224.22,74.25,85.61,88.58,26.57-8.13v-111.13ZM826.9,954.2l-20.11,6.22,20.11,18.72v-24.94ZM602.85,1057.42l95.5,76.63,128.56-42.48v-98.41l-28.99-30-195.06,60.44v33.82ZM862.07,1029.55l.07,50.38,36.85-12.18-36.92-38.2ZM712.52,1146.6h114.39v-46.31l-121.03,39.99,6.64,6.32ZM602.85,1057.42v89.19s96.17,0,96.17,0l-96.17-77.92v76.93"/><path d="M858.44,523l-106.8,35.03,116.36,138.15,99.01-23.71-108.57-149.48ZM1007.72,712.46c58.97-22.33,86.94-44.29,96.6-64.33l-123.32,29.53,26.72,34.8ZM990.2,479.79l-123.5,40.5,109.02,150.09,130.56-29.87c15.44-44.54-57.25-75.9-72.16-82.4-1.22-.52-2.56.4-2.5,1.72l2.74,59.38-15.36-1.21-5.4-49.65c-1.41-17.16-4.93-33.94-9.8-48.34l-13.6-40.23ZM904.99,739.92l93.5-24.08-26.21-36.08-98.31,23.53,31.02,36.64ZM826.9,750.69c25.25-2.34,44.87-5.05,68.51-9.08l-30.46-36.17-64.17,15.35,26.11,29.89ZM707.47,743.14l-59.86,11.68c20.58.94,52.49,1.34,73.3,1.22l-13.45-12.89ZM732.96,755.91c30.2-.32,54.4-1.7,83.81-4.28l-25.08-28.65-74.63,17.87,15.9,15.06ZM743.15,560.82l-64.01,20.99,115.48,131.94,64.36-15.41-115.83-137.52ZM742.11,362.85l-124.93,35.55,35.96,42.68,121-34.14-32.02-44.09ZM742.11,362.85l-124.93,35.55,35.96,42.68,121-34.14-32.02-44.09ZM608.44,400.88h0l-70.17,19.98,36.94,42.21h0l69.16-19.52-35.93-42.67ZM650.23,450.5l-68.98,19.47,91.96,105.06,64.17-21.04-87.15-103.48ZM575.85,362.11c-22.79,12.46-38.8,23.95-55.74,38.02l12.1,13.82,70.35-20.02-26.71-31.82ZM608.44,400.88h0l-70.17,19.98,36.94,42.21h0l69.16-19.52-35.93-42.67ZM742.11,362.85l-124.93,35.55,35.96,42.68,121-34.14-32.02-44.09ZM693.69,294.6,693.69,294.6c-42.86,2.22-72.23,10.75-72.23,10.75l-.13,34.6c-13.58,5.72-26.25,11.79-38.11,18.12l28.1,33.37,125.6-35.74-43.24-61.1M693.69,294.6,861.83,328.78l-111.23,31.65,32.03,44.11,131.56-37.12c-66.95-63.31-151.24-75.03-212.16-73.16l43.38,59.03,105.63-30.05M919.41,374.55l-131.58,37.12h0s73.77,101.58,73.77,101.58l123.5-40.5c-21.21-56.66-65.69-98.2-65.69-98.2ZM459.33,496.72l107.04-31.17-36.93-42.19-46.68,13.28c-17.25,18.97-25.36,32.57-35.46,51.29l12.04,8.79ZM572.42,472.46l-106.5,30.05,111.11,104.06,87.62-28.73-92.23-105.38ZM650.23,450.5l-68.98,19.47,91.96,105.06,64.17-21.04-87.15-103.48ZM779.32,414.08l-120.34,33.96,86.89,103.17,107.44-35.24-74-101.89ZM670.58,584.62l-86.78,28.46,126.14,120.95,75.57-18.1-114.93-131.31ZM700.36,736.32l-125.48-120.32-77.64,25.47,110.85,111,92.28-16.15ZM589.57,748.9l-101.12-104.55-122.91,40.31s143.65,60.89,224.04,64.23ZM436.82,510.81c-28.62,62.61-21.76,107.85-21.76,107.85l-19.9-.46,3.55-58.95c-33.96,11.13-52.21,28.51-62.01,43.44-11.7,17.83-10.48,41.18,2.67,57.97,5.82,7.42,9.86,11.08,18.66,17.66l123.94-40.56-45.42-46.22,5.9-5.81,48.31,49.14,77.34-25.36-109.45-104.94-21.83,6.25ZM445.27,491.74c-1.62,3.12-3.62,7.89-5.08,10.97l12.58-3.77-7.51-7.19ZM493.33,425.01l30.06-8.55-9.57-10.94-20.49,19.49ZM742.11,362.85l-124.93,35.55,35.96,42.68,121-34.14-32.02-44.09Z"/></svg>